<?xml version="1.0" encoding="utf-8"?>
<!-- Generator: Adobe Illustrator 19.0.0, SVG Export Plug-In . SVG Version: 6.00 Build 0)  -->
<svg version="1.1" id="Layer_1" xmlns="http://www.w3.org/2000/svg" xmlns:xlink="http://www.w3.org/1999/xlink" x="0px" y="0px"
	 viewBox="-129 225.8 240.4 50.2" style="enable-background:new -129 225.8 240.4 50.2;" xml:space="preserve">
<style type="text/css">
	.st0{fill:#FFFFFF;}
</style>
<g id="XMLID_555_">
	<path id="XMLID_604_" class="st0" d="M-83.8,235.7h-10.9c-3.2,0-5.9,2.7-5.9,5.9c0,0.7,0.5,1.2,1.2,1.2c0.7,0,1.2-0.5,1.2-1.2
		c0-1.9,1.6-3.5,3.5-3.5h10.9c2.1,0,3.7,1.7,3.7,3.7v7c0,1.6-1.3,2.9-2.9,2.9h-2.8c-1.1,0-2,0.9-2,2v1.8l-3.8-3.3
		c-0.4-0.3-0.8-0.5-1.3-0.5h-2.9c-1.3,0-2.4-1.1-2.4-2.4l0,0c0-3.2-2.7-5.8-5.9-5.8H-115c-3.4,0-6.1,2.7-6.1,6.1v7
		c0,2.9,2.4,5.3,5.3,5.3h2.4v2.2c0,0.8,0.4,1.5,1.2,1.8c0.3,0.1,0.6,0.2,0.8,0.2c0.5,0,0.9-0.2,1.3-0.5l4.3-3.8h2.8
		c2.7,0,4.8-2.2,4.8-4.8c0-0.7-0.5-1.2-1.2-1.2s-1.2,0.5-1.2,1.2c0,1.3-1.1,2.4-2.4,2.4h-2.9c-0.5,0-0.9,0.2-1.3,0.5l-3.8,3.3v-1.8
		c0-1.1-0.9-2-2-2h-2.8c-1.6,0-2.9-1.3-2.9-2.9v-7c0-2.1,1.7-3.7,3.7-3.7h10.9c1.9,0,3.5,1.6,3.5,3.5l0,0c0,2.6,2.2,4.8,4.8,4.8h2.8
		l4.3,3.8c0.4,0.3,0.8,0.5,1.3,0.5c0.3,0,0.6-0.1,0.8-0.2c0.7-0.3,1.2-1,1.2-1.8v-2.3h2.4c2.9,0,5.3-2.4,5.3-5.3v-7
		C-77.7,238.5-80.5,235.7-83.8,235.7z"/>
	<g id="XMLID_556_">
		<path id="XMLID_601_" class="st0" d="M-56.6,246.2c0.7,0.5,1.3,1.1,1.7,1.9c0.4,0.8,0.6,1.7,0.6,2.8c0,1-0.2,2-0.6,2.8
			s-1,1.5-1.7,1.9c-0.7,0.5-1.5,0.7-2.4,0.7c-0.6,0-1.2-0.1-1.8-0.4c-0.6-0.3-1-0.6-1.4-0.9v3.8c0,0.3-0.1,0.6-0.3,0.8
			c-0.2,0.2-0.5,0.3-0.8,0.3s-0.6-0.1-0.8-0.3c-0.2-0.2-0.3-0.5-0.3-0.9v-12c0-0.3,0.1-0.6,0.3-0.8c0.2-0.2,0.5-0.3,0.8-0.3
			s0.6,0.1,0.8,0.3c0.2,0.2,0.3,0.5,0.3,0.8v0.1c0.3-0.4,0.7-0.7,1.3-1c0.6-0.3,1.1-0.4,1.8-0.4C-58.2,245.5-57.4,245.8-56.6,246.2z
			 M-57.3,253.3c0.5-0.6,0.8-1.4,0.8-2.3c0-0.9-0.3-1.7-0.8-2.3c-0.5-0.6-1.2-0.9-2.1-0.9c-0.8,0-1.5,0.3-2.1,0.9
			c-0.5,0.6-0.8,1.4-0.8,2.3c0,0.9,0.3,1.7,0.8,2.3c0.5,0.6,1.2,0.9,2.1,0.9S-57.8,253.9-57.3,253.3z"/>
		<path id="XMLID_599_" class="st0" d="M-46.4,245.9c0.3,0.2,0.4,0.5,0.4,0.8c0,0.4-0.1,0.7-0.3,0.9c-0.2,0.2-0.5,0.3-0.7,0.3
			s-0.4,0-0.7-0.1c0,0-0.1,0-0.3-0.1c-0.1,0-0.3-0.1-0.4-0.1c-0.3,0-0.7,0.1-1,0.3c-0.3,0.2-0.6,0.5-0.8,0.9
			c-0.2,0.4-0.3,0.9-0.3,1.5v4.6c0,0.3-0.1,0.6-0.3,0.8c-0.2,0.2-0.5,0.3-0.8,0.3s-0.6-0.1-0.8-0.3c-0.2-0.2-0.3-0.5-0.3-0.8v-8.1
			c0-0.3,0.1-0.6,0.3-0.8c0.2-0.2,0.5-0.3,0.8-0.3s0.6,0.1,0.8,0.3c0.2,0.2,0.3,0.5,0.3,0.8v0.3c0.3-0.5,0.7-0.9,1.3-1.2
			c0.6-0.3,1.2-0.4,1.8-0.4C-47,245.5-46.7,245.7-46.4,245.9z"/>
		<path id="XMLID_596_" class="st0" d="M-35.9,253.8c-0.5,0.8-1.1,1.5-1.9,1.9c-0.8,0.5-1.7,0.7-2.7,0.7s-1.9-0.2-2.7-0.7
			c-0.8-0.5-1.4-1.1-1.9-1.9s-0.7-1.8-0.7-2.8s0.2-2,0.7-2.8c0.5-0.8,1.1-1.5,1.9-1.9c0.8-0.5,1.7-0.7,2.7-0.7s1.9,0.2,2.7,0.7
			c0.8,0.5,1.5,1.1,1.9,1.9c0.5,0.8,0.7,1.8,0.7,2.8C-35.2,252-35.5,252.9-35.9,253.8z M-38,249.3c-0.3-0.5-0.6-0.9-1.1-1.2
			c-0.4-0.3-0.9-0.4-1.5-0.4c-0.5,0-1,0.1-1.5,0.4c-0.4,0.3-0.8,0.7-1.1,1.2c-0.3,0.5-0.4,1.1-0.4,1.7c0,0.6,0.1,1.2,0.4,1.7
			s0.6,0.9,1.1,1.2c0.4,0.3,0.9,0.4,1.5,0.4c0.5,0,1-0.1,1.5-0.4c0.4-0.3,0.8-0.7,1.1-1.2c0.3-0.5,0.4-1.1,0.4-1.7
			C-37.6,250.3-37.7,249.8-38,249.3z"/>
		<path id="XMLID_593_" class="st0" d="M-24.3,245.9c0.2,0.2,0.3,0.5,0.3,0.9v8.7c0,1.6-0.5,2.8-1.5,3.5c-1,0.8-2.2,1.1-3.7,1.1
			c-0.4,0-0.9-0.1-1.6-0.2s-1.2-0.3-1.5-0.4c-0.6-0.3-1-0.7-1-1.1c0-0.1,0-0.2,0.1-0.3c0.1-0.3,0.2-0.5,0.4-0.7
			c0.2-0.1,0.4-0.2,0.6-0.2c0.1,0,0.3,0,0.4,0.1c0.1,0,0.4,0.1,1,0.4c0.6,0.2,1.1,0.3,1.6,0.3c1,0,1.7-0.2,2.2-0.6s0.7-0.9,0.7-1.6
			v-1c-0.3,0.4-0.7,0.8-1.3,1.1c-0.6,0.3-1.2,0.5-1.9,0.5c-0.9,0-1.7-0.2-2.5-0.7c-0.7-0.5-1.3-1.1-1.8-1.9
			c-0.4-0.8-0.6-1.7-0.6-2.8c0-1,0.2-2,0.6-2.8c0.4-0.8,1-1.5,1.7-1.9c0.7-0.4,1.6-0.7,2.4-0.7c0.7,0,1.3,0.1,1.9,0.4
			c0.6,0.3,1,0.6,1.4,1v-0.2c0-0.3,0.1-0.6,0.3-0.8c0.2-0.2,0.5-0.3,0.8-0.3C-24.8,245.5-24.5,245.7-24.3,245.9z M-27,253.3
			c0.6-0.6,0.8-1.4,0.8-2.3c0-0.9-0.3-1.7-0.8-2.3c-0.6-0.6-1.3-0.9-2.1-0.9c-0.9,0-1.6,0.3-2.1,0.9c-0.5,0.6-0.8,1.4-0.8,2.3
			c0,0.9,0.3,1.7,0.8,2.3c0.5,0.6,1.3,0.9,2.1,0.9S-27.6,253.9-27,253.3z"/>
		<path id="XMLID_591_" class="st0" d="M-15.5,245.9c0.3,0.2,0.4,0.5,0.4,0.8c0,0.4-0.1,0.7-0.3,0.9c-0.2,0.2-0.5,0.3-0.7,0.3
			s-0.4,0-0.7-0.1c0,0-0.1,0-0.3-0.1c-0.1,0-0.3-0.1-0.4-0.1c-0.3,0-0.7,0.1-1,0.3c-0.3,0.2-0.6,0.5-0.8,0.9
			c-0.2,0.4-0.3,0.9-0.3,1.5v4.6c0,0.3-0.1,0.6-0.3,0.8c-0.2,0.2-0.5,0.3-0.8,0.3s-0.6-0.1-0.8-0.3c-0.2-0.2-0.3-0.5-0.3-0.8v-8.1
			c0-0.3,0.1-0.6,0.3-0.8c0.2-0.2,0.5-0.3,0.8-0.3s0.6,0.1,0.8,0.3c0.2,0.2,0.3,0.5,0.3,0.8v0.3c0.3-0.5,0.7-0.9,1.3-1.2
			c0.6-0.3,1.2-0.4,1.8-0.4C-16.1,245.5-15.8,245.7-15.5,245.9z"/>
		<path id="XMLID_588_" class="st0" d="M-4.9,245.9c0.2,0.2,0.3,0.5,0.3,0.9v8.3c0,0.3-0.1,0.6-0.3,0.8c-0.2,0.2-0.5,0.3-0.8,0.3
			s-0.6-0.1-0.8-0.3c-0.2-0.2-0.3-0.5-0.3-0.8c-0.3,0.4-0.8,0.7-1.3,1c-0.6,0.3-1.1,0.4-1.7,0.4c-0.9,0-1.7-0.2-2.4-0.7
			c-0.7-0.5-1.3-1.1-1.7-1.9c-0.4-0.8-0.6-1.7-0.6-2.8c0-1,0.2-2,0.6-2.8s1-1.5,1.7-1.9c0.7-0.5,1.5-0.7,2.4-0.7
			c0.6,0,1.2,0.1,1.8,0.3c0.5,0.2,1,0.5,1.4,0.9l0,0c0-0.3,0.1-0.6,0.3-0.8c0.2-0.2,0.5-0.3,0.8-0.3S-5.1,245.7-4.9,245.9z
			 M-7.6,253.3c0.5-0.6,0.8-1.4,0.8-2.3c0-0.9-0.3-1.7-0.8-2.3c-0.5-0.6-1.2-0.9-2.1-0.9c-0.8,0-1.5,0.3-2,0.9
			c-0.5,0.6-0.8,1.4-0.8,2.3c0,0.9,0.3,1.7,0.8,2.3c0.5,0.6,1.2,0.9,2.1,0.9C-8.8,254.2-8.1,253.9-7.6,253.3z"/>
		<path id="XMLID_586_" class="st0" d="M12.2,246.7c0.5,0.8,0.7,1.9,0.7,3.3v5c0,0.3-0.1,0.6-0.3,0.8s-0.5,0.3-0.8,0.3
			s-0.6-0.1-0.8-0.3s-0.3-0.5-0.3-0.8v-5c0-0.7-0.1-1.3-0.4-1.7c-0.3-0.4-0.8-0.6-1.5-0.6s-1.3,0.2-1.7,0.7c-0.4,0.4-0.6,1-0.6,1.6
			v5c0,0.3-0.1,0.6-0.3,0.8s-0.5,0.3-0.8,0.3s-0.6-0.1-0.8-0.3s-0.3-0.5-0.3-0.8v-5c0-0.7-0.1-1.3-0.4-1.7c-0.3-0.4-0.8-0.6-1.5-0.6
			s-1.3,0.2-1.7,0.7c-0.4,0.4-0.6,1-0.6,1.6v5c0,0.3-0.1,0.6-0.3,0.8s-0.5,0.3-0.8,0.3s-0.6-0.1-0.8-0.3c-0.2-0.2-0.3-0.5-0.3-0.8
			v-8.1c0-0.3,0.1-0.6,0.3-0.8c0.2-0.2,0.5-0.3,0.8-0.3s0.6,0.1,0.8,0.3s0.3,0.5,0.3,0.8v0.3c0.4-0.5,0.8-0.9,1.3-1.2
			s1.1-0.5,1.8-0.5c1.6,0,2.7,0.7,3.1,2.1c0.3-0.5,0.8-1,1.4-1.5c0.6-0.4,1.3-0.7,2.1-0.7C10.8,245.5,11.7,245.9,12.2,246.7z"/>
		<path id="XMLID_583_" class="st0" d="M24.3,245.9c0.2,0.2,0.3,0.5,0.3,0.9v8.3c0,0.3-0.1,0.6-0.3,0.8c-0.2,0.2-0.5,0.3-0.8,0.3
			s-0.6-0.1-0.8-0.3c-0.2-0.2-0.3-0.5-0.3-0.8c-0.3,0.4-0.8,0.7-1.3,1c-0.6,0.3-1.1,0.4-1.7,0.4c-0.9,0-1.7-0.2-2.4-0.7
			c-0.7-0.5-1.3-1.1-1.7-1.9c-0.4-0.8-0.6-1.7-0.6-2.8c0-1,0.2-2,0.6-2.8c0.4-0.8,1-1.5,1.7-1.9c0.7-0.4,1.5-0.7,2.4-0.7
			c0.6,0,1.2,0.1,1.8,0.3c0.5,0.2,1,0.5,1.4,0.9l0,0c0-0.3,0.1-0.6,0.3-0.8c0.2-0.2,0.5-0.3,0.8-0.3
			C23.8,245.5,24.1,245.7,24.3,245.9z M21.6,253.3c0.5-0.6,0.8-1.4,0.8-2.3c0-0.9-0.3-1.7-0.8-2.3c-0.5-0.6-1.2-0.9-2.1-0.9
			c-0.8,0-1.5,0.3-2,0.9c-0.5,0.6-0.8,1.4-0.8,2.3c0,0.9,0.3,1.7,0.8,2.3c0.5,0.6,1.2,0.9,2.1,0.9C20.4,254.2,21.1,253.9,21.6,253.3
			z"/>
		<path id="XMLID_581_" class="st0" d="M32.2,254.2c0.1,0.2,0.2,0.4,0.2,0.7c0,0.4-0.2,0.6-0.6,0.9c-0.4,0.2-0.8,0.4-1.3,0.4
			c-0.8,0-1.5-0.2-2-0.5c-0.6-0.3-0.8-1.1-0.8-2.2v-5.4h-0.9c-0.3,0-0.6-0.1-0.8-0.3s-0.3-0.5-0.3-0.8c0-0.3,0.1-0.5,0.3-0.8
			c0.2-0.2,0.5-0.3,0.8-0.3h0.9v-1.2c0-0.3,0.1-0.6,0.3-0.8s0.5-0.3,0.8-0.3s0.6,0.1,0.8,0.3s0.3,0.5,0.3,0.8v1.2h1.4
			c0.3,0,0.6,0.1,0.8,0.3c0.2,0.2,0.3,0.5,0.3,0.8c0,0.3-0.1,0.6-0.3,0.8s-0.5,0.3-0.8,0.3H30v5.3c0,0.3,0.1,0.5,0.2,0.6
			c0.1,0.1,0.3,0.2,0.6,0.2c0.1,0,0.2,0,0.4-0.1c0.2-0.1,0.3-0.1,0.4-0.1C31.9,254,32.1,254.1,32.2,254.2z"/>
		<path id="XMLID_579_" class="st0" d="M42.8,246.1c0.2,0.2,0.3,0.5,0.3,0.8v5c0,1.4-0.4,2.5-1.2,3.3s-1.9,1.2-3.3,1.2
			s-2.5-0.4-3.3-1.2s-1.2-1.9-1.2-3.3v-5c0-0.3,0.1-0.6,0.3-0.8c0.2-0.2,0.5-0.3,0.8-0.3s0.6,0.1,0.8,0.3s0.3,0.5,0.3,0.8v5
			c0,0.8,0.2,1.4,0.5,1.8c0.4,0.4,0.9,0.6,1.6,0.6c0.7,0,1.2-0.2,1.6-0.6c0.4-0.4,0.5-1,0.5-1.8v-5c0-0.3,0.1-0.6,0.3-0.8
			c0.2-0.2,0.5-0.3,0.8-0.3C42.3,245.7,42.5,245.9,42.8,246.1z"/>
		<path id="XMLID_577_" class="st0" d="M53.9,246.1c0.2,0.2,0.3,0.5,0.3,0.8c0,0.2-0.1,0.4-0.2,0.6l-3.6,8c-0.1,0.2-0.2,0.4-0.4,0.5
			s-0.4,0.2-0.6,0.2h-0.2c-0.2,0-0.4-0.1-0.6-0.2s-0.3-0.3-0.4-0.6l-3.6-8c-0.1-0.2-0.1-0.4-0.1-0.6c0-0.3,0.1-0.5,0.3-0.7
			c0.2-0.2,0.5-0.3,0.8-0.3c0.2,0,0.5,0.1,0.7,0.2s0.4,0.3,0.5,0.5l2.7,6.2l2.7-6.1c0.1-0.2,0.2-0.4,0.4-0.6
			c0.2-0.1,0.4-0.2,0.6-0.2C53.5,245.8,53.7,245.9,53.9,246.1z"/>
		<path id="XMLID_574_" class="st0" d="M55.7,244.3c-0.2-0.1-0.3-0.4-0.3-0.8v-0.4c0-0.4,0.1-0.6,0.3-0.8c0.2-0.1,0.5-0.2,0.9-0.2
			c0.5,0,0.8,0.1,1,0.2c0.2,0.1,0.3,0.4,0.3,0.8v0.4c0,0.4-0.1,0.6-0.3,0.8c-0.2,0.1-0.5,0.2-1,0.2
			C56.2,244.5,55.9,244.4,55.7,244.3z M57.5,255.8c-0.2,0.2-0.5,0.3-0.8,0.3s-0.6-0.1-0.8-0.3s-0.3-0.5-0.3-0.8v-8.1
			c0-0.3,0.1-0.6,0.3-0.8s0.5-0.3,0.8-0.3s0.6,0.1,0.8,0.3s0.3,0.5,0.3,0.8v8.1C57.8,255.3,57.7,255.6,57.5,255.8z"/>
		<path id="XMLID_571_" class="st0" d="M69,245.9c0.2,0.2,0.3,0.5,0.3,0.9v8.3c0,0.3-0.1,0.6-0.3,0.8c-0.2,0.2-0.5,0.3-0.8,0.3
			s-0.6-0.1-0.8-0.3c-0.2-0.2-0.3-0.5-0.3-0.8c-0.3,0.4-0.8,0.7-1.3,1c-0.6,0.3-1.1,0.4-1.7,0.4c-0.9,0-1.7-0.2-2.4-0.7
			c-0.7-0.5-1.3-1.1-1.7-1.9c-0.4-0.8-0.6-1.7-0.6-2.8c0-1,0.2-2,0.6-2.8c0.4-0.8,1-1.5,1.7-1.9c0.7-0.4,1.5-0.7,2.4-0.7
			c0.6,0,1.2,0.1,1.8,0.3c0.5,0.2,1,0.5,1.4,0.9l0,0c0-0.3,0.1-0.6,0.3-0.8c0.2-0.2,0.5-0.3,0.8-0.3C68.5,245.5,68.8,245.7,69,245.9
			z M66.3,253.3c0.5-0.6,0.8-1.4,0.8-2.3c0-0.9-0.3-1.7-0.8-2.3c-0.5-0.6-1.2-0.9-2.1-0.9c-0.8,0-1.5,0.3-2,0.9
			c-0.5,0.6-0.8,1.4-0.8,2.3c0,0.9,0.3,1.7,0.8,2.3c0.5,0.6,1.2,0.9,2.1,0.9C65.1,254.2,65.8,253.9,66.3,253.3z"/>
		<path id="XMLID_568_" class="st0" d="M70,259.7c-0.2-0.2-0.3-0.5-0.3-0.8v-0.2c0-0.5,0.3-0.9,1-1.1c0.4-0.1,0.7-0.3,0.8-0.7
			c0.1-0.3,0.2-0.7,0.2-1.3v-8.8c0-0.3,0.1-0.6,0.3-0.8s0.5-0.3,0.8-0.3s0.6,0.1,0.8,0.3c0.2,0.2,0.3,0.5,0.3,0.8v9.4
			c0,0.7-0.1,1.4-0.4,1.9c-0.3,0.5-0.7,1-1.2,1.3c-0.5,0.3-1,0.4-1.6,0.4C70.5,260,70.3,259.9,70,259.7z M71.9,244.3
			c-0.2-0.1-0.3-0.4-0.3-0.8v-0.4c0-0.4,0.1-0.6,0.3-0.8c0.2-0.1,0.5-0.2,0.9-0.2c0.5,0,0.8,0.1,1,0.2c0.2,0.1,0.3,0.4,0.3,0.8v0.4
			c0,0.4-0.1,0.6-0.3,0.8c-0.2,0.1-0.5,0.2-1,0.2C72.4,244.5,72.1,244.4,71.9,244.3z"/>
		<path id="XMLID_565_" class="st0" d="M85.3,251.5c-0.2,0.2-0.5,0.3-0.8,0.3H78c0.2,0.8,0.5,1.4,1.1,1.8c0.6,0.4,1.2,0.7,1.9,0.7
			c0.5,0,0.9,0,1.2-0.1c0.3-0.1,0.5-0.2,0.7-0.3c0.2-0.1,0.3-0.2,0.4-0.2c0.2-0.1,0.5-0.2,0.7-0.2c0.3,0,0.5,0.1,0.7,0.3
			s0.3,0.4,0.3,0.7c0,0.4-0.2,0.7-0.5,1c-0.4,0.3-0.9,0.6-1.5,0.8c-0.6,0.2-1.2,0.3-1.9,0.3c-1.1,0-2-0.2-2.9-0.7
			c-0.8-0.5-1.4-1.1-1.9-1.9c-0.4-0.8-0.7-1.7-0.7-2.7c0-1.1,0.2-2.1,0.7-2.9c0.5-0.8,1.1-1.5,1.9-1.9s1.6-0.7,2.5-0.7
			s1.7,0.2,2.4,0.7c0.8,0.5,1.4,1.1,1.8,1.9c0.5,0.8,0.7,1.7,0.7,2.6C85.6,251,85.5,251.3,85.3,251.5z M78,249.8h5.1v-0.1
			c-0.1-0.5-0.3-1-0.8-1.4s-1-0.6-1.6-0.6C79.2,247.7,78.3,248.4,78,249.8z"/>
		<path id="XMLID_563_" class="st0" d="M87.3,255.9c-0.2-0.2-0.3-0.5-0.3-0.9v-0.3c0-0.4,0.1-0.7,0.3-0.9s0.5-0.3,0.9-0.3h0.3
			c0.4,0,0.7,0.1,0.9,0.3s0.3,0.5,0.3,0.9v0.3c0,0.4-0.1,0.7-0.3,0.9s-0.5,0.3-0.9,0.3h-0.3C87.8,256.2,87.5,256.1,87.3,255.9z"/>
		<path id="XMLID_559_" class="st0" d="M98.7,246.1c0.7,0.3,1,0.8,1,1.4c0,0.3-0.1,0.5-0.3,0.8c-0.2,0.2-0.4,0.3-0.7,0.3
			c-0.2,0-0.4,0-0.5-0.1s-0.3-0.1-0.4-0.2c-0.1-0.1-0.2-0.2-0.4-0.2c-0.1-0.1-0.3-0.1-0.6-0.2c-0.3-0.1-0.5-0.1-0.6-0.1
			c-1,0-1.7,0.3-2.3,0.9s-0.8,1.4-0.8,2.4c0,0.9,0.3,1.7,0.8,2.3c0.6,0.6,1.3,0.9,2.1,0.9c0.6,0,1.1-0.1,1.4-0.2
			c0.1,0,0.2-0.1,0.3-0.2s0.3-0.2,0.4-0.2c0.1-0.1,0.3-0.1,0.4-0.1c0.3,0,0.6,0.1,0.8,0.3s0.3,0.5,0.3,0.8c0,0.3-0.2,0.6-0.5,0.9
			c-0.4,0.3-0.8,0.5-1.4,0.7c-0.6,0.2-1.2,0.2-1.9,0.2c-1,0-1.9-0.2-2.6-0.7c-0.8-0.5-1.3-1.1-1.8-1.9c-0.4-0.8-0.6-1.7-0.6-2.8
			c0-1.1,0.2-2,0.7-2.8c0.5-0.8,1-1.5,1.8-1.9c0.8-0.5,1.7-0.7,2.7-0.7C97.1,245.5,98,245.7,98.7,246.1z"/>
		<path id="XMLID_557_" class="st0" d="M103.2,255.8c-0.2,0.2-0.5,0.3-0.8,0.3s-0.6-0.1-0.8-0.3s-0.3-0.5-0.3-0.8v-12.1
			c0-0.3,0.1-0.6,0.3-0.8s0.5-0.3,0.8-0.3s0.6,0.1,0.8,0.3s0.3,0.5,0.3,0.8V255C103.6,255.3,103.5,255.6,103.2,255.8z"/>
	</g>
</g>
</svg>
