<?xml version="1.0" encoding="utf-8"?>
<!-- Generator: Adobe Illustrator 19.0.0, SVG Export Plug-In . SVG Version: 6.00 Build 0)  -->
<svg version="1.1" id="Layer_1" xmlns="http://www.w3.org/2000/svg" xmlns:xlink="http://www.w3.org/1999/xlink" x="0px" y="0px"
	 viewBox="-138 175.4 221.4 151.6" style="enable-background:new -138 175.4 221.4 151.6;" xml:space="preserve">
<style type="text/css">
	.st0{fill:#FFFFFF;}
</style>
<g id="XMLID_1313_">
	<path id="XMLID_1331_" class="st0" d="M28.6,176.8h-39.4c-11.8,0-21.3,9.6-21.3,21.4c0,2.4,1.9,4.4,4.3,4.4s4.3-2,4.3-4.4
		c0-7,5.7-12.7,12.6-12.7h39.4c7.4,0,13.4,6.1,13.4,13.6v25.2c0,5.8-4.7,10.5-10.6,10.5h-10c-4,0-7.3,3.3-7.3,7.3v6.4L0.3,236.6
		c-1.3-1.1-3-1.8-4.7-1.8h-10.5c-4.8,0-8.7-3.9-8.7-8.7l0,0c-0.1-11.7-9.6-21.2-21.3-21.2h-39.3c-12.2,0-22.1,9.9-22.1,22.1v25.2
		c0,10.6,8.6,19.3,19.2,19.3h8.6v8.1c0,2.9,1.6,5.4,4.2,6.6c1,0.4,2,0.7,3,0.7c1.7,0,3.4-0.6,4.7-1.8l15.7-13.6h10
		c9.6,0,17.4-7.8,17.4-17.4c0-2.4-1.9-4.4-4.3-4.4s-4.3,2-4.3,4.4c0,4.8-3.9,8.7-8.7,8.7h-10.6c-1.7,0-3.4,0.6-4.7,1.7l-13.7,11.9
		V270c0-4-3.3-7.2-7.3-7.2h-10c-5.8,0-10.6-4.8-10.6-10.6v-25.1c0-7.4,6-13.4,13.4-13.4h39.4c7,0,12.6,5.6,12.6,12.6l0,0
		c0.1,9.5,7.8,17.2,17.4,17.2h10L11,257.2c1.4,1.2,3,1.8,4.7,1.8c1,0,2-0.2,3-0.7c2.6-1.2,4.2-3.7,4.2-6.6v-8.2h8.6
		c10.6,0,19.2-8.6,19.2-19.2v-25.2C50.7,186.9,40.8,176.8,28.6,176.8z"/>
	<g id="XMLID_1_">
		<path id="XMLID_2_" class="st0" d="M-125.9,307.7c0.9,0.6,1.7,1.4,2.2,2.5c0.5,1.1,0.8,2.3,0.8,3.6c0,1.3-0.3,2.6-0.8,3.6
			c-0.5,1.1-1.3,1.9-2.2,2.5c-0.9,0.6-2,0.9-3.1,0.9c-0.8,0-1.6-0.2-2.3-0.5c-0.7-0.3-1.3-0.7-1.8-1.2v4.9c0,0.4-0.1,0.8-0.4,1.1
			s-0.6,0.4-1.1,0.4c-0.4,0-0.8-0.1-1.1-0.4c-0.3-0.3-0.4-0.7-0.4-1.1v-15.5c0-0.4,0.1-0.8,0.4-1.1s0.6-0.4,1.1-0.4
			c0.4,0,0.8,0.1,1.1,0.4c0.3,0.3,0.4,0.7,0.4,1.1v0.1c0.4-0.5,1-0.9,1.7-1.3c0.7-0.4,1.5-0.6,2.3-0.6
			C-127.9,306.8-126.8,307.1-125.9,307.7z M-126.8,316.8c0.7-0.8,1-1.8,1-3s-0.3-2.2-1-3c-0.7-0.8-1.6-1.2-2.7-1.2s-2,0.4-2.7,1.2
			s-1,1.8-1,3s0.3,2.2,1,3s1.6,1.2,2.7,1.2C-128.3,318-127.5,317.6-126.8,316.8z"/>
		<path id="XMLID_5_" class="st0" d="M-112.6,307.2c0.3,0.3,0.5,0.6,0.5,1c0,0.5-0.1,0.9-0.4,1.2s-0.6,0.4-1,0.4
			c-0.3,0-0.5-0.1-0.9-0.2c-0.1,0-0.2-0.1-0.3-0.1c-0.2-0.1-0.4-0.1-0.6-0.1c-0.4,0-0.9,0.1-1.3,0.4s-0.7,0.7-1,1.2s-0.4,1.2-0.4,2
			v6c0,0.4-0.1,0.8-0.4,1.1c-0.3,0.3-0.6,0.4-1.1,0.4c-0.4,0-0.8-0.1-1.1-0.4c-0.3-0.3-0.4-0.7-0.4-1.1v-10.4c0-0.4,0.1-0.8,0.4-1.1
			s0.6-0.4,1.1-0.4c0.4,0,0.8,0.1,1.1,0.4c0.3,0.3,0.4,0.7,0.4,1.1v0.3c0.4-0.7,0.9-1.2,1.7-1.6c0.7-0.4,1.5-0.5,2.3-0.5
			C-113.4,306.8-113,306.9-112.6,307.2z"/>
		<path id="XMLID_7_" class="st0" d="M-99.1,317.4c-0.6,1.1-1.4,1.9-2.5,2.5s-2.2,0.9-3.5,0.9s-2.4-0.3-3.5-0.9
			c-1-0.6-1.9-1.4-2.5-2.5s-0.9-2.3-0.9-3.6s0.3-2.6,0.9-3.6s1.4-1.9,2.5-2.5c1-0.6,2.2-0.9,3.5-0.9s2.4,0.3,3.5,0.9
			s1.9,1.4,2.5,2.5s0.9,2.3,0.9,3.6S-98.5,316.3-99.1,317.4z M-101.7,311.6c-0.3-0.6-0.8-1.1-1.4-1.5c-0.6-0.4-1.2-0.5-1.9-0.5
			c-0.7,0-1.4,0.2-1.9,0.5c-0.5,0.3-1,0.9-1.4,1.5c-0.3,0.6-0.5,1.4-0.5,2.2s0.2,1.6,0.5,2.2c0.3,0.6,0.8,1.1,1.4,1.5
			c0.6,0.4,1.2,0.5,1.9,0.5c0.7,0,1.4-0.2,1.9-0.5c0.6-0.4,1-0.8,1.4-1.5c0.4-0.7,0.5-1.4,0.5-2.2S-101.4,312.2-101.7,311.6z"/>
		<path id="XMLID_10_" class="st0" d="M-84,307.2c0.3,0.3,0.4,0.7,0.4,1.1v11.2c0,2.1-0.6,3.6-1.9,4.6s-2.9,1.5-4.8,1.5
			c-0.5,0-1.2-0.1-2.1-0.3c-0.9-0.2-1.5-0.3-1.9-0.5c-0.8-0.4-1.2-0.8-1.2-1.5c0-0.1,0-0.3,0.1-0.4c0.1-0.4,0.3-0.7,0.5-0.8
			c0.2-0.2,0.5-0.3,0.8-0.3c0.2,0,0.3,0,0.5,0.1c0.1,0,0.5,0.2,1.2,0.5c0.8,0.3,1.5,0.4,2.1,0.4c1.2,0,2.2-0.2,2.8-0.7
			c0.6-0.5,0.9-1.2,0.9-2.1v-1.2c-0.4,0.5-0.9,1-1.7,1.4c-0.7,0.4-1.6,0.6-2.4,0.6c-1.2,0-2.3-0.3-3.2-0.9c-1-0.6-1.7-1.4-2.3-2.5
			c-0.6-1.1-0.8-2.3-0.8-3.6c0-1.3,0.3-2.6,0.8-3.6c0.5-1.1,1.3-1.9,2.2-2.5c0.9-0.6,2-0.9,3.2-0.9c0.9,0,1.7,0.2,2.4,0.5
			c0.7,0.3,1.3,0.8,1.8,1.3v-0.3c0-0.4,0.1-0.8,0.4-1.1c0.3-0.3,0.6-0.4,1.1-0.4C-84.7,306.8-84.3,306.9-84,307.2z M-87.6,316.8
			c0.7-0.8,1.1-1.8,1.1-3s-0.4-2.2-1.1-3c-0.7-0.8-1.6-1.2-2.8-1.2c-1.1,0-2,0.4-2.8,1.2c-0.7,0.8-1.1,1.8-1.1,3s0.4,2.2,1.1,3
			s1.6,1.2,2.8,1.2C-89.2,318-88.3,317.6-87.6,316.8z"/>
		<path id="XMLID_13_" class="st0" d="M-72.7,307.2c0.3,0.3,0.5,0.6,0.5,1c0,0.5-0.1,0.9-0.4,1.2s-0.6,0.4-1,0.4
			c-0.3,0-0.5-0.1-0.9-0.2c-0.1,0-0.2-0.1-0.3-0.1c-0.2-0.1-0.4-0.1-0.6-0.1c-0.4,0-0.9,0.1-1.3,0.4c-0.4,0.3-0.7,0.7-1,1.2
			s-0.4,1.2-0.4,2v6c0,0.4-0.1,0.8-0.4,1.1s-0.6,0.4-1.1,0.4c-0.4,0-0.8-0.1-1.1-0.4s-0.4-0.7-0.4-1.1v-10.4c0-0.4,0.1-0.8,0.4-1.1
			s0.6-0.4,1.1-0.4c0.4,0,0.8,0.1,1.1,0.4c0.3,0.3,0.4,0.7,0.4,1.1v0.3c0.4-0.7,0.9-1.2,1.7-1.6c0.7-0.4,1.5-0.5,2.3-0.5
			C-73.4,306.8-73,306.9-72.7,307.2z"/>
		<path id="XMLID_15_" class="st0" d="M-58.9,307.2c0.3,0.3,0.4,0.7,0.4,1.1V319c0,0.4-0.1,0.8-0.4,1.1s-0.6,0.4-1.1,0.4
			c-0.4,0-0.8-0.1-1.1-0.4c-0.3-0.3-0.4-0.6-0.4-1.1c-0.4,0.5-1,0.9-1.7,1.2c-0.7,0.3-1.5,0.5-2.3,0.5c-1.2,0-2.2-0.3-3.2-0.9
			c-1-0.6-1.7-1.4-2.2-2.5c-0.5-1.1-0.8-2.3-0.8-3.6c0-1.3,0.3-2.6,0.8-3.6c0.5-1.1,1.3-1.9,2.2-2.5c0.9-0.6,2-0.9,3.1-0.9
			c0.8,0,1.6,0.1,2.3,0.4c0.7,0.3,1.3,0.7,1.8,1.1l0,0c0-0.4,0.1-0.8,0.4-1.1c0.3-0.3,0.6-0.4,1.1-0.4
			C-59.6,306.8-59.2,306.9-58.9,307.2z M-62.4,316.8c0.7-0.8,1-1.8,1-3s-0.3-2.2-1-3s-1.6-1.2-2.7-1.2s-2,0.4-2.7,1.2s-1,1.8-1,3
			s0.3,2.2,1,3s1.6,1.2,2.7,1.2S-63.1,317.6-62.4,316.8z"/>
		<path id="XMLID_18_" class="st0" d="M-36.8,308.3c0.6,1,1,2.4,1,4.2v6.5c0,0.4-0.1,0.8-0.4,1.1c-0.3,0.3-0.6,0.4-1.1,0.4
			c-0.4,0-0.8-0.1-1.1-0.4c-0.3-0.3-0.4-0.7-0.4-1.1v-6.5c0-0.9-0.2-1.7-0.5-2.2c-0.4-0.5-1-0.8-1.9-0.8s-1.7,0.3-2.2,0.8
			c-0.5,0.6-0.8,1.3-0.8,2.1v6.5c0,0.4-0.1,0.8-0.4,1.1s-0.6,0.4-1.1,0.4c-0.4,0-0.8-0.1-1.1-0.4c-0.3-0.3-0.4-0.7-0.4-1.1v-6.5
			c0-0.9-0.2-1.7-0.5-2.2s-1-0.8-1.9-0.8s-1.7,0.3-2.2,0.8c-0.5,0.6-0.8,1.3-0.8,2.1v6.5c0,0.4-0.1,0.8-0.4,1.1
			c-0.3,0.3-0.6,0.4-1.1,0.4c-0.4,0-0.8-0.1-1.1-0.4c-0.3-0.3-0.4-0.7-0.4-1.1v-10.4c0-0.4,0.1-0.8,0.4-1.1c0.3-0.3,0.6-0.4,1.1-0.4
			c0.4,0,0.8,0.1,1.1,0.4c0.3,0.3,0.4,0.7,0.4,1.1v0.4c0.5-0.6,1-1.1,1.7-1.6c0.7-0.4,1.5-0.6,2.3-0.6c2.1,0,3.5,0.9,4.1,2.8
			c0.4-0.7,1-1.3,1.8-1.9s1.7-0.9,2.7-0.9C-38.6,306.8-37.4,307.3-36.8,308.3z"/>
		<path id="XMLID_20_" class="st0" d="M-21.2,307.2c0.3,0.3,0.4,0.7,0.4,1.1V319c0,0.4-0.1,0.8-0.4,1.1s-0.6,0.4-1.1,0.4
			c-0.4,0-0.8-0.1-1.1-0.4c-0.3-0.3-0.4-0.6-0.4-1.1c-0.4,0.5-1,0.9-1.7,1.2c-0.7,0.3-1.5,0.5-2.3,0.5c-1.2,0-2.2-0.3-3.2-0.9
			c-1-0.6-1.7-1.4-2.2-2.5c-0.5-1.1-0.8-2.3-0.8-3.6c0-1.3,0.3-2.6,0.8-3.6c0.5-1.1,1.3-1.9,2.2-2.5c0.9-0.6,2-0.9,3.1-0.9
			c0.8,0,1.6,0.1,2.3,0.4c0.7,0.3,1.3,0.7,1.8,1.1l0,0c0-0.4,0.1-0.8,0.4-1.1c0.3-0.3,0.6-0.4,1.1-0.4
			C-21.8,306.8-21.4,306.9-21.2,307.2z M-24.7,316.8c0.7-0.8,1-1.8,1-3s-0.3-2.2-1-3s-1.6-1.2-2.7-1.2s-2,0.4-2.7,1.2s-1,1.8-1,3
			s0.3,2.2,1,3s1.6,1.2,2.7,1.2S-25.4,317.6-24.7,316.8z"/>
		<path id="XMLID_23_" class="st0" d="M-10.9,318c0.2,0.2,0.3,0.5,0.3,0.9c0,0.5-0.2,0.8-0.7,1.1s-1.1,0.5-1.7,0.5
			c-1,0-1.9-0.2-2.6-0.7s-1.1-1.4-1.1-2.8v-7h-1.2c-0.4,0-0.7-0.1-1-0.4c-0.3-0.3-0.4-0.6-0.4-1s0.1-0.7,0.4-1s0.6-0.4,1-0.4h1.2
			v-1.6c0-0.4,0.1-0.8,0.4-1.1s0.7-0.4,1.1-0.4s0.8,0.1,1.1,0.4c0.3,0.3,0.4,0.7,0.4,1.1v1.6h1.8c0.4,0,0.7,0.1,1,0.4s0.4,0.6,0.4,1
			s-0.1,0.7-0.4,1s-0.6,0.4-1,0.4h-1.8v6.8c0,0.4,0.1,0.6,0.3,0.8c0.2,0.2,0.4,0.2,0.8,0.2c0.1,0,0.3,0,0.6-0.1
			c0.2-0.1,0.4-0.1,0.6-0.1C-11.3,317.7-11.1,317.8-10.9,318z"/>
		<path id="XMLID_25_" class="st0" d="M2.7,307.5c0.3,0.3,0.4,0.7,0.4,1.1v6.4c0,1.8-0.5,3.2-1.5,4.3c-1,1-2.4,1.5-4.3,1.5
			s-3.3-0.5-4.3-1.5s-1.5-2.4-1.5-4.3v-6.4c0-0.4,0.1-0.8,0.4-1.1c0.3-0.3,0.6-0.4,1.1-0.4s0.8,0.1,1.1,0.4s0.4,0.7,0.4,1.1v6.4
			c0,1,0.2,1.8,0.7,2.3s1.1,0.7,2,0.7s1.6-0.2,2.1-0.7S0,316,0,315v-6.4c0-0.4,0.1-0.8,0.4-1.1c0.3-0.3,0.6-0.4,1.1-0.4
			C2.1,307,2.4,307.2,2.7,307.5z"/>
		<path id="XMLID_27_" class="st0" d="M17.2,307.4c0.3,0.3,0.4,0.6,0.4,1c0,0.2-0.1,0.5-0.2,0.8l-4.7,10.4c-0.1,0.3-0.3,0.5-0.5,0.7
			s-0.5,0.3-0.8,0.3h-0.2c-0.3,0-0.6-0.1-0.8-0.3s-0.4-0.4-0.6-0.7l-4.7-10.4c-0.1-0.3-0.2-0.5-0.2-0.8s0.1-0.6,0.4-0.9
			c0.3-0.3,0.6-0.4,1.1-0.4c0.3,0,0.6,0.1,0.9,0.3c0.3,0.2,0.5,0.4,0.6,0.7l3.5,8l3.5-8c0.1-0.3,0.3-0.6,0.6-0.7
			c0.2-0.2,0.5-0.2,0.8-0.2C16.6,307.1,16.9,307.2,17.2,307.4z"/>
		<path id="XMLID_29_" class="st0" d="M19.5,305.1c-0.2-0.2-0.4-0.5-0.4-1v-0.5c0-0.5,0.1-0.8,0.4-1c0.3-0.2,0.7-0.3,1.2-0.3
			c0.6,0,1,0.1,1.2,0.3c0.2,0.2,0.4,0.5,0.4,1v0.5c0,0.5-0.1,0.8-0.4,1c-0.3,0.2-0.7,0.3-1.2,0.3C20.1,305.4,19.7,305.3,19.5,305.1z
			 M21.8,320.1c-0.3,0.3-0.6,0.4-1.1,0.4s-0.8-0.1-1.1-0.4s-0.4-0.7-0.4-1.1v-10.4c0-0.4,0.1-0.8,0.4-1.1c0.3-0.3,0.6-0.4,1.1-0.4
			s0.8,0.1,1.1,0.4s0.4,0.7,0.4,1.1V319C22.2,319.4,22.1,319.8,21.8,320.1z"/>
		<path id="XMLID_32_" class="st0" d="M36.7,307.2c0.3,0.3,0.4,0.7,0.4,1.1V319c0,0.4-0.1,0.8-0.4,1.1c-0.3,0.3-0.6,0.4-1.1,0.4
			c-0.4,0-0.8-0.1-1.1-0.4c-0.3-0.3-0.4-0.6-0.4-1.1c-0.4,0.5-1,0.9-1.7,1.2c-0.7,0.3-1.5,0.5-2.3,0.5c-1.2,0-2.2-0.3-3.2-0.9
			c-0.9-0.6-1.7-1.4-2.2-2.5c-0.5-1.1-0.8-2.3-0.8-3.6c0-1.3,0.3-2.6,0.8-3.6c0.5-1.1,1.3-1.9,2.2-2.5c0.9-0.6,2-0.9,3.1-0.9
			c0.8,0,1.6,0.1,2.3,0.4c0.7,0.3,1.3,0.7,1.8,1.1l0,0c0-0.4,0.1-0.8,0.4-1.1c0.3-0.3,0.6-0.4,1.1-0.4
			C36.1,306.8,36.4,306.9,36.7,307.2z M33.2,316.8c0.7-0.8,1-1.8,1-3s-0.3-2.2-1-3s-1.6-1.2-2.7-1.2c-1.1,0-2,0.4-2.7,1.2
			s-1,1.8-1,3s0.3,2.2,1,3s1.6,1.2,2.7,1.2C31.6,318,32.5,317.6,33.2,316.8z"/>
		<path id="XMLID_35_" class="st0" d="M38.1,325.1c-0.3-0.3-0.4-0.6-0.4-1v-0.3c0-0.7,0.4-1.1,1.3-1.4c0.5-0.2,0.9-0.5,1-0.8
			c0.1-0.4,0.2-0.9,0.2-1.7v-11.3c0-0.4,0.1-0.8,0.4-1.1c0.3-0.3,0.6-0.4,1.1-0.4c0.4,0,0.8,0.1,1.1,0.4s0.4,0.7,0.4,1.1v12.2
			c0,0.9-0.2,1.8-0.5,2.5c-0.4,0.7-0.9,1.3-1.5,1.6c-0.6,0.4-1.3,0.6-2.1,0.6C38.7,325.5,38.3,325.4,38.1,325.1z M40.4,305.1
			c-0.2-0.2-0.4-0.5-0.4-1v-0.5c0-0.5,0.1-0.8,0.4-1c0.3-0.2,0.7-0.3,1.2-0.3c0.6,0,1,0.1,1.2,0.3c0.2,0.2,0.4,0.5,0.4,1v0.5
			c0,0.5-0.1,0.8-0.4,1c-0.3,0.2-0.7,0.3-1.2,0.3C41.1,305.4,40.7,305.3,40.4,305.1z"/>
		<path id="XMLID_38_" class="st0" d="M57.8,314.5c-0.3,0.3-0.7,0.4-1.1,0.4h-8.3c0.2,1,0.7,1.8,1.4,2.3c0.7,0.6,1.5,0.8,2.4,0.8
			c0.7,0,1.2-0.1,1.6-0.2c0.4-0.1,0.7-0.3,0.9-0.4c0.2-0.1,0.4-0.2,0.5-0.3c0.3-0.2,0.6-0.2,0.9-0.2c0.4,0,0.7,0.1,0.9,0.4
			c0.3,0.3,0.4,0.5,0.4,0.9c0,0.5-0.2,0.9-0.7,1.2c-0.5,0.4-1.1,0.7-1.9,1c-0.8,0.3-1.6,0.4-2.4,0.4c-1.4,0-2.6-0.3-3.7-0.9
			c-1.1-0.6-1.9-1.4-2.4-2.4c-0.6-1-0.9-2.2-0.9-3.5c0-1.4,0.3-2.7,0.9-3.8c0.6-1.1,1.4-1.9,2.4-2.5c1-0.6,2.1-0.9,3.2-0.9
			c1.1,0,2.2,0.3,3.1,0.9c1,0.6,1.8,1.4,2.4,2.4c0.6,1,0.9,2.1,0.9,3.3C58.2,313.9,58.1,314.2,57.8,314.5z M48.4,312.3H55v-0.2
			c-0.1-0.7-0.4-1.3-1-1.8s-1.3-0.8-2.1-0.8C49.9,309.6,48.7,310.5,48.4,312.3z"/>
		<path id="XMLID_41_" class="st0" d="M60.3,320.1c-0.3-0.3-0.4-0.6-0.4-1.1v-0.4c0-0.5,0.1-0.9,0.4-1.1c0.3-0.3,0.6-0.4,1.1-0.4
			h0.3c0.5,0,0.9,0.1,1.1,0.4c0.3,0.3,0.4,0.6,0.4,1.1v0.4c0,0.5-0.1,0.9-0.4,1.1c-0.3,0.3-0.6,0.4-1.1,0.4h-0.3
			C61,320.5,60.6,320.4,60.3,320.1z"/>
		<path id="XMLID_43_" class="st0" d="M75.1,307.4c0.9,0.4,1.3,1,1.3,1.8c0,0.4-0.1,0.7-0.3,1c-0.2,0.3-0.5,0.4-0.9,0.4
			c-0.3,0-0.5,0-0.7-0.1c-0.2-0.1-0.3-0.2-0.5-0.3s-0.3-0.2-0.5-0.3c-0.2-0.1-0.4-0.2-0.7-0.2c-0.3-0.1-0.6-0.1-0.8-0.1
			c-1.3,0-2.3,0.4-3,1.2c-0.7,0.8-1.1,1.8-1.1,3.1c0,1.2,0.4,2.2,1.1,3c0.7,0.8,1.6,1.2,2.8,1.2c0.8,0,1.4-0.1,1.8-0.3
			c0.1-0.1,0.2-0.1,0.4-0.3c0.2-0.1,0.3-0.2,0.5-0.3c0.2-0.1,0.3-0.1,0.6-0.1c0.4,0,0.8,0.1,1,0.4c0.2,0.3,0.4,0.6,0.4,1
			c0,0.4-0.2,0.8-0.7,1.1c-0.5,0.4-1.1,0.6-1.9,0.8c-0.8,0.2-1.6,0.3-2.5,0.3c-1.3,0-2.4-0.3-3.4-0.9c-1-0.6-1.7-1.4-2.3-2.5
			c-0.5-1.1-0.8-2.3-0.8-3.6c0-1.4,0.3-2.6,0.8-3.6s1.4-1.9,2.4-2.5c1-0.6,2.2-0.9,3.4-0.9C73.1,306.8,74.3,307,75.1,307.4z"/>
		<path id="XMLID_45_" class="st0" d="M81,320.1c-0.3,0.3-0.7,0.4-1.1,0.4c-0.4,0-0.8-0.1-1.1-0.4s-0.4-0.7-0.4-1.1v-15.6
			c0-0.4,0.1-0.8,0.4-1.1c0.3-0.3,0.7-0.4,1.1-0.4c0.4,0,0.8,0.1,1.1,0.4c0.3,0.3,0.4,0.7,0.4,1.1V319
			C81.4,319.4,81.3,319.8,81,320.1z"/>
	</g>
</g>
</svg>
